<svg xmlns="http://www.w3.org/2000/svg" xmlns:xlink="http://www.w3.org/1999/xlink" width="300" zoomAndPan="magnify" viewBox="0 0 224.87999 225" height="300" preserveAspectRatio="xMidYMid meet" version="1.0"><defs><clipPath id="ad69b2d8af"><path d="M 190 44 L 194.796875 44 L 194.796875 181 L 190 181 Z M 190 44 " clip-rule="nonzero"/></clipPath><clipPath id="f9d6ae52c9"><path d="M 30.082031 44 L 35 44 L 35 181 L 30.082031 181 Z M 30.082031 44 " clip-rule="nonzero"/></clipPath><clipPath id="7ef46f1a1c"><path d="M 44 30.140625 L 181 30.140625 L 181 35 L 44 35 Z M 44 30.140625 " clip-rule="nonzero"/></clipPath><clipPath id="6504494f62"><path d="M 44 190 L 181 190 L 181 194.859375 L 44 194.859375 Z M 44 190 " clip-rule="nonzero"/></clipPath><clipPath id="b7e31fd671"><path d="M 180 30.140625 L 194.796875 30.140625 L 194.796875 45 L 180 45 Z M 180 30.140625 " clip-rule="nonzero"/></clipPath><clipPath id="98f496b777"><path d="M 30.082031 30.140625 L 45 30.140625 L 45 45 L 30.082031 45 Z M 30.082031 30.140625 " clip-rule="nonzero"/></clipPath><clipPath id="172dd490c5"><path d="M 180 180 L 194.796875 180 L 194.796875 194.859375 L 180 194.859375 Z M 180 180 " clip-rule="nonzero"/></clipPath><clipPath id="31c911a70c"><path d="M 30.082031 180 L 45 180 L 45 194.859375 L 30.082031 194.859375 Z M 30.082031 180 " clip-rule="nonzero"/></clipPath><clipPath id="1b3a102ae1"><path d="M 29.183594 29.242188 L 195.59375 29.242188 L 195.59375 195.652344 L 29.183594 195.652344 Z M 29.183594 29.242188 " clip-rule="nonzero"/></clipPath><clipPath id="5c3c9a68eb"><path d="M 41.871094 41.929688 L 182.792969 41.929688 L 182.792969 182.855469 L 41.871094 182.855469 Z M 41.871094 41.929688 " clip-rule="nonzero"/></clipPath></defs><g clip-path="url(#ad69b2d8af)"><path fill="#ffffff" d="M 190.621094 44.492188 L 195.59375 44.492188 L 195.59375 180.402344 L 190.621094 180.402344 Z M 190.621094 44.492188 " fill-opacity="1" fill-rule="nonzero"/></g><g clip-path="url(#f9d6ae52c9)"><path fill="#ffffff" d="M 29.179688 44.492188 L 34.152344 44.492188 L 34.152344 180.402344 L 29.179688 180.402344 Z M 29.179688 44.492188 " fill-opacity="1" fill-rule="nonzero"/></g><g clip-path="url(#7ef46f1a1c)"><path fill="#ffffff" d="M 44.429688 29.242188 L 180.34375 29.242188 L 180.34375 34.214844 L 44.429688 34.214844 Z M 44.429688 29.242188 " fill-opacity="1" fill-rule="nonzero"/></g><g clip-path="url(#6504494f62)"><path fill="#ffffff" d="M 44.429688 190.679688 L 180.34375 190.679688 L 180.34375 195.652344 L 44.429688 195.652344 Z M 44.429688 190.679688 " fill-opacity="1" fill-rule="nonzero"/></g><g clip-path="url(#b7e31fd671)"><path fill="#ffffff" d="M 190.621094 34.214844 L 190.621094 44.492188 L 195.59375 44.492188 L 195.59375 29.242188 L 180.34375 29.242188 L 180.34375 34.214844 Z M 190.621094 34.214844 " fill-opacity="1" fill-rule="nonzero"/></g><g clip-path="url(#98f496b777)"><path fill="#ffffff" d="M 34.152344 34.214844 L 44.429688 34.214844 L 44.429688 29.242188 L 29.179688 29.242188 L 29.179688 44.492188 L 34.152344 44.492188 Z M 34.152344 34.214844 " fill-opacity="1" fill-rule="nonzero"/></g><g clip-path="url(#172dd490c5)"><path fill="#ffffff" d="M 190.621094 190.679688 L 180.34375 190.679688 L 180.34375 195.652344 L 195.59375 195.652344 L 195.59375 180.402344 L 190.621094 180.402344 Z M 190.621094 190.679688 " fill-opacity="1" fill-rule="nonzero"/></g><g clip-path="url(#31c911a70c)"><path fill="#ffffff" d="M 34.152344 190.679688 L 34.152344 180.402344 L 29.179688 180.402344 L 29.179688 195.652344 L 44.429688 195.652344 L 44.429688 190.679688 Z M 34.152344 190.679688 " fill-opacity="1" fill-rule="nonzero"/></g><g clip-path="url(#1b3a102ae1)"><path stroke-linecap="butt" transform="matrix(0.7496, 0, 0, 0.7496, 29.181896, 29.241911)" fill="none" stroke-linejoin="miter" d="M 0.00226458 0.000368574 L 0.00226458 222.124076 L 222.125972 222.124076 L 222.125972 0.000368574 L 0.00226458 0.000368574 " stroke="#00bf63" stroke-width="8" stroke-opacity="1" stroke-miterlimit="4"/></g><g clip-path="url(#5c3c9a68eb)"><path fill="#00bf63" d="M 182.996094 112.496094 C 182.996094 151.464844 151.402344 183.058594 112.433594 183.058594 C 73.460938 183.058594 41.871094 151.464844 41.871094 112.496094 C 41.871094 73.523438 73.460938 41.933594 112.433594 41.933594 C 151.402344 41.933594 182.996094 73.523438 182.996094 112.496094 " fill-opacity="1" fill-rule="nonzero"/></g><path fill="#ffffff" d="M 120.894531 139.660156 L 103.832031 139.660156 C 103.222656 139.660156 102.746094 140.195312 102.820312 140.800781 C 104.019531 151.890625 120.707031 151.890625 121.90625 140.800781 C 121.980469 140.195312 121.503906 139.660156 120.894531 139.660156 " fill-opacity="1" fill-rule="nonzero"/><path fill="#ffffff" d="M 142.1875 134.160156 C 140.6875 131.765625 139.375 129.269531 138.246094 126.691406 C 130.929688 110.296875 141.605469 93.25 118.835938 85.101562 C 119.742188 78.601562 116.078125 75.917969 112.433594 75.875 C 108.789062 75.917969 105.121094 78.601562 106.03125 85.101562 C 83.257812 93.25 93.9375 110.296875 86.621094 126.691406 C 85.488281 129.269531 84.179688 131.765625 82.675781 134.160156 C 81.972656 135.289062 82.785156 136.75 84.113281 136.75 L 140.75 136.75 C 142.082031 136.75 142.894531 135.289062 142.1875 134.160156 " fill-opacity="1" fill-rule="nonzero"/></svg>