<svg xmlns="http://www.w3.org/2000/svg" xmlns:xlink="http://www.w3.org/1999/xlink" width="300" zoomAndPan="magnify" viewBox="0 0 224.87999 225" height="300" preserveAspectRatio="xMidYMid meet" version="1.0"><defs><clipPath id="0ac7e6647f"><path d="M 190 44 L 194.796875 44 L 194.796875 181 L 190 181 Z M 190 44 " clip-rule="nonzero"/></clipPath><clipPath id="2b64cdbc0f"><path d="M 30.082031 44 L 35 44 L 35 181 L 30.082031 181 Z M 30.082031 44 " clip-rule="nonzero"/></clipPath><clipPath id="069d9b65d2"><path d="M 44 30.140625 L 181 30.140625 L 181 35 L 44 35 Z M 44 30.140625 " clip-rule="nonzero"/></clipPath><clipPath id="6dbe1cce01"><path d="M 44 190 L 181 190 L 181 194.859375 L 44 194.859375 Z M 44 190 " clip-rule="nonzero"/></clipPath><clipPath id="a00292d9a7"><path d="M 180 30.140625 L 194.796875 30.140625 L 194.796875 45 L 180 45 Z M 180 30.140625 " clip-rule="nonzero"/></clipPath><clipPath id="97f6857f7b"><path d="M 30.082031 30.140625 L 45 30.140625 L 45 45 L 30.082031 45 Z M 30.082031 30.140625 " clip-rule="nonzero"/></clipPath><clipPath id="7ea19c3e04"><path d="M 180 180 L 194.796875 180 L 194.796875 194.859375 L 180 194.859375 Z M 180 180 " clip-rule="nonzero"/></clipPath><clipPath id="d6ba504ec4"><path d="M 30.082031 180 L 45 180 L 45 194.859375 L 30.082031 194.859375 Z M 30.082031 180 " clip-rule="nonzero"/></clipPath><clipPath id="ddd4144f17"><path d="M 29.183594 29.242188 L 195.59375 29.242188 L 195.59375 195.652344 L 29.183594 195.652344 Z M 29.183594 29.242188 " clip-rule="nonzero"/></clipPath><clipPath id="1b247f7b25"><path d="M 42.089844 53 L 171 53 L 171 183 L 42.089844 183 Z M 42.089844 53 " clip-rule="nonzero"/></clipPath></defs><g clip-path="url(#0ac7e6647f)"><path fill="#ffffff" d="M 190.621094 44.492188 L 195.59375 44.492188 L 195.59375 180.402344 L 190.621094 180.402344 Z M 190.621094 44.492188 " fill-opacity="1" fill-rule="nonzero"/></g><g clip-path="url(#2b64cdbc0f)"><path fill="#ffffff" d="M 29.179688 44.492188 L 34.152344 44.492188 L 34.152344 180.402344 L 29.179688 180.402344 Z M 29.179688 44.492188 " fill-opacity="1" fill-rule="nonzero"/></g><g clip-path="url(#069d9b65d2)"><path fill="#ffffff" d="M 44.429688 29.242188 L 180.34375 29.242188 L 180.34375 34.214844 L 44.429688 34.214844 Z M 44.429688 29.242188 " fill-opacity="1" fill-rule="nonzero"/></g><g clip-path="url(#6dbe1cce01)"><path fill="#ffffff" d="M 44.429688 190.679688 L 180.34375 190.679688 L 180.34375 195.652344 L 44.429688 195.652344 Z M 44.429688 190.679688 " fill-opacity="1" fill-rule="nonzero"/></g><g clip-path="url(#a00292d9a7)"><path fill="#ffffff" d="M 190.621094 34.214844 L 190.621094 44.492188 L 195.59375 44.492188 L 195.59375 29.242188 L 180.34375 29.242188 L 180.34375 34.214844 Z M 190.621094 34.214844 " fill-opacity="1" fill-rule="nonzero"/></g><g clip-path="url(#97f6857f7b)"><path fill="#ffffff" d="M 34.152344 34.214844 L 44.429688 34.214844 L 44.429688 29.242188 L 29.179688 29.242188 L 29.179688 44.492188 L 34.152344 44.492188 Z M 34.152344 34.214844 " fill-opacity="1" fill-rule="nonzero"/></g><g clip-path="url(#7ea19c3e04)"><path fill="#ffffff" d="M 190.621094 190.679688 L 180.34375 190.679688 L 180.34375 195.652344 L 195.59375 195.652344 L 195.59375 180.402344 L 190.621094 180.402344 Z M 190.621094 190.679688 " fill-opacity="1" fill-rule="nonzero"/></g><g clip-path="url(#d6ba504ec4)"><path fill="#ffffff" d="M 34.152344 190.679688 L 34.152344 180.402344 L 29.179688 180.402344 L 29.179688 195.652344 L 44.429688 195.652344 L 44.429688 190.679688 Z M 34.152344 190.679688 " fill-opacity="1" fill-rule="nonzero"/></g><g clip-path="url(#ddd4144f17)"><path stroke-linecap="butt" transform="matrix(0.7496, 0, 0, 0.7496, 29.181896, 29.241911)" fill="none" stroke-linejoin="miter" d="M 0.00226458 0.000368574 L 0.00226458 222.124076 L 222.125972 222.124076 L 222.125972 0.000368574 L 0.00226458 0.000368574 " stroke="#00bf63" stroke-width="8" stroke-opacity="1" stroke-miterlimit="4"/></g><g clip-path="url(#1b247f7b25)"><path fill="#00bf63" d="M 160.234375 172.109375 L 52.828125 172.109375 L 52.828125 64.703125 L 117.273438 64.703125 L 117.273438 53.964844 L 52.828125 53.964844 C 46.898438 53.964844 42.089844 58.773438 42.089844 64.703125 L 42.089844 172.109375 C 42.089844 178.039062 46.898438 182.851562 52.828125 182.851562 L 160.234375 182.851562 C 166.164062 182.851562 170.976562 178.039062 170.976562 172.109375 L 170.976562 107.667969 L 160.234375 107.667969 Z M 160.234375 172.109375 " fill-opacity="1" fill-rule="nonzero"/></g><path fill="#00bf63" d="M 85.050781 140.058594 L 107.660156 140.058594 L 162.457031 85.261719 L 139.679688 62.480469 L 85.050781 117.105469 Z M 85.050781 140.058594 " fill-opacity="1" fill-rule="nonzero"/><path fill="#00bf63" d="M 178.570312 53.964844 L 170.976562 46.371094 C 166.777344 42.171875 159.976562 42.171875 155.789062 46.371094 L 147.269531 54.886719 L 170.050781 77.667969 L 178.570312 69.148438 C 182.769531 64.949219 182.769531 58.152344 178.570312 53.964844 Z M 178.570312 53.964844 " fill-opacity="1" fill-rule="nonzero"/></svg>