<svg xmlns="http://www.w3.org/2000/svg" xmlns:xlink="http://www.w3.org/1999/xlink" width="300" zoomAndPan="magnify" viewBox="0 0 224.87999 225" height="300" preserveAspectRatio="xMidYMid meet" version="1.0"><defs><clipPath id="77678d1bf6"><path d="M 190 44 L 194.796875 44 L 194.796875 181 L 190 181 Z M 190 44 " clip-rule="nonzero"/></clipPath><clipPath id="bceed89802"><path d="M 30.082031 44 L 35 44 L 35 181 L 30.082031 181 Z M 30.082031 44 " clip-rule="nonzero"/></clipPath><clipPath id="2e267bb93f"><path d="M 44 30.140625 L 181 30.140625 L 181 35 L 44 35 Z M 44 30.140625 " clip-rule="nonzero"/></clipPath><clipPath id="7a0472cfc9"><path d="M 44 190 L 181 190 L 181 194.859375 L 44 194.859375 Z M 44 190 " clip-rule="nonzero"/></clipPath><clipPath id="d764c527ca"><path d="M 180 30.140625 L 194.796875 30.140625 L 194.796875 45 L 180 45 Z M 180 30.140625 " clip-rule="nonzero"/></clipPath><clipPath id="d3952433d3"><path d="M 30.082031 30.140625 L 45 30.140625 L 45 45 L 30.082031 45 Z M 30.082031 30.140625 " clip-rule="nonzero"/></clipPath><clipPath id="73362ee256"><path d="M 180 180 L 194.796875 180 L 194.796875 194.859375 L 180 194.859375 Z M 180 180 " clip-rule="nonzero"/></clipPath><clipPath id="24f33b5689"><path d="M 30.082031 180 L 45 180 L 45 194.859375 L 30.082031 194.859375 Z M 30.082031 180 " clip-rule="nonzero"/></clipPath><clipPath id="d843f92722"><path d="M 29.183594 29.242188 L 195.59375 29.242188 L 195.59375 195.652344 L 29.183594 195.652344 Z M 29.183594 29.242188 " clip-rule="nonzero"/></clipPath><clipPath id="7ae9d57c18"><path d="M 42 41.453125 L 188 41.453125 L 188 183.878906 L 42 183.878906 Z M 42 41.453125 " clip-rule="nonzero"/></clipPath><clipPath id="5afefbc668"><path d="M 41.109375 55.695312 L 41.109375 169.304688 C 41.109375 177.167969 47.484375 183.546875 55.351562 183.546875 L 175.65625 183.546875 C 183.519531 183.546875 189.898438 177.167969 189.898438 169.304688 L 189.898438 55.695312 C 189.898438 47.832031 183.519531 41.453125 175.65625 41.453125 L 55.351562 41.453125 C 47.484375 41.453125 41.109375 47.832031 41.109375 55.695312 Z M 41.109375 55.695312 " clip-rule="nonzero"/></clipPath></defs><g clip-path="url(#77678d1bf6)"><path fill="#ffffff" d="M 190.621094 44.492188 L 195.59375 44.492188 L 195.59375 180.402344 L 190.621094 180.402344 Z M 190.621094 44.492188 " fill-opacity="1" fill-rule="nonzero"/></g><g clip-path="url(#bceed89802)"><path fill="#ffffff" d="M 29.179688 44.492188 L 34.152344 44.492188 L 34.152344 180.402344 L 29.179688 180.402344 Z M 29.179688 44.492188 " fill-opacity="1" fill-rule="nonzero"/></g><g clip-path="url(#2e267bb93f)"><path fill="#ffffff" d="M 44.429688 29.242188 L 180.34375 29.242188 L 180.34375 34.214844 L 44.429688 34.214844 Z M 44.429688 29.242188 " fill-opacity="1" fill-rule="nonzero"/></g><g clip-path="url(#7a0472cfc9)"><path fill="#ffffff" d="M 44.429688 190.679688 L 180.34375 190.679688 L 180.34375 195.652344 L 44.429688 195.652344 Z M 44.429688 190.679688 " fill-opacity="1" fill-rule="nonzero"/></g><g clip-path="url(#d764c527ca)"><path fill="#ffffff" d="M 190.621094 34.214844 L 190.621094 44.492188 L 195.59375 44.492188 L 195.59375 29.242188 L 180.34375 29.242188 L 180.34375 34.214844 Z M 190.621094 34.214844 " fill-opacity="1" fill-rule="nonzero"/></g><g clip-path="url(#d3952433d3)"><path fill="#ffffff" d="M 34.152344 34.214844 L 44.429688 34.214844 L 44.429688 29.242188 L 29.179688 29.242188 L 29.179688 44.492188 L 34.152344 44.492188 Z M 34.152344 34.214844 " fill-opacity="1" fill-rule="nonzero"/></g><g clip-path="url(#73362ee256)"><path fill="#ffffff" d="M 190.621094 190.679688 L 180.34375 190.679688 L 180.34375 195.652344 L 195.59375 195.652344 L 195.59375 180.402344 L 190.621094 180.402344 Z M 190.621094 190.679688 " fill-opacity="1" fill-rule="nonzero"/></g><g clip-path="url(#24f33b5689)"><path fill="#ffffff" d="M 34.152344 190.679688 L 34.152344 180.402344 L 29.179688 180.402344 L 29.179688 195.652344 L 44.429688 195.652344 L 44.429688 190.679688 Z M 34.152344 190.679688 " fill-opacity="1" fill-rule="nonzero"/></g><g clip-path="url(#d843f92722)"><path stroke-linecap="butt" transform="matrix(0.7496, 0, 0, 0.7496, 29.181896, 29.241911)" fill="none" stroke-linejoin="miter" d="M 0.00226458 0.000368574 L 0.00226458 222.124076 L 222.125972 222.124076 L 222.125972 0.000368574 L 0.00226458 0.000368574 " stroke="#00bf63" stroke-width="8" stroke-opacity="1" stroke-miterlimit="4"/></g><g clip-path="url(#7ae9d57c18)"><g clip-path="url(#5afefbc668)"><path fill="#00bf63" d="M 187.015625 91.117188 L 185.527344 92.738281 L 180.792969 97.882812 L 175.851562 103.292969 L 164.214844 115.878906 L 157.042969 123.726562 C 156.359375 124.4375 155.527344 124.800781 154.539062 124.808594 L 154.203125 124.808594 C 153.664062 124.746094 153.167969 124.5625 152.71875 124.265625 C 152.265625 123.96875 151.902344 123.585938 151.628906 123.117188 L 141.953125 106.8125 C 141.726562 106.425781 141.582031 106.007812 141.519531 105.566406 C 141.453125 105.121094 141.476562 104.679688 141.582031 104.246094 C 141.691406 103.808594 141.875 103.410156 142.140625 103.046875 C 142.402344 102.683594 142.722656 102.382812 143.105469 102.144531 C 143.496094 101.921875 143.914062 101.777344 144.363281 101.71875 C 144.808594 101.660156 145.25 101.6875 145.6875 101.800781 C 146.125 101.914062 146.523438 102.105469 146.882812 102.378906 C 147.246094 102.648438 147.542969 102.976562 147.773438 103.363281 L 155.148438 115.878906 L 164.214844 105.933594 L 172.132812 97.273438 L 176.730469 92.265625 L 181.332031 87.257812 L 182.007812 86.515625 C 182.3125 86.183594 182.671875 85.921875 183.082031 85.730469 C 183.488281 85.542969 183.917969 85.4375 184.371094 85.417969 C 184.820312 85.398438 185.257812 85.46875 185.679688 85.621094 C 186.101562 85.777344 186.480469 86.007812 186.8125 86.3125 C 187.144531 86.617188 187.40625 86.972656 187.597656 87.382812 C 187.785156 87.792969 187.890625 88.222656 187.910156 88.671875 C 187.929688 89.121094 187.859375 89.558594 187.707031 89.980469 C 187.550781 90.40625 187.320312 90.785156 187.015625 91.117188 Z M 187.015625 91.117188 L 185.527344 92.738281 L 180.792969 97.882812 L 175.851562 103.292969 L 164.214844 115.878906 L 157.042969 123.726562 C 156.359375 124.4375 155.527344 124.800781 154.539062 124.808594 L 154.203125 124.808594 C 153.664062 124.746094 153.167969 124.5625 152.71875 124.265625 C 152.265625 123.96875 151.902344 123.585938 151.628906 123.117188 L 141.953125 106.8125 C 141.726562 106.425781 141.582031 106.007812 141.519531 105.566406 C 141.453125 105.121094 141.476562 104.679688 141.582031 104.246094 C 141.691406 103.808594 141.875 103.410156 142.140625 103.046875 C 142.402344 102.683594 142.722656 102.382812 143.105469 102.144531 C 143.496094 101.921875 143.914062 101.777344 144.363281 101.71875 C 144.808594 101.660156 145.25 101.6875 145.6875 101.800781 C 146.125 101.914062 146.523438 102.105469 146.882812 102.378906 C 147.246094 102.648438 147.542969 102.976562 147.773438 103.363281 L 155.148438 115.878906 L 164.214844 105.933594 L 172.132812 97.273438 L 176.730469 92.265625 L 181.332031 87.257812 L 182.007812 86.515625 C 182.3125 86.183594 182.671875 85.921875 183.082031 85.730469 C 183.488281 85.542969 183.917969 85.4375 184.371094 85.417969 C 184.820312 85.398438 185.257812 85.46875 185.679688 85.621094 C 186.101562 85.777344 186.480469 86.007812 186.8125 86.3125 C 187.144531 86.617188 187.40625 86.972656 187.597656 87.382812 C 187.785156 87.792969 187.890625 88.222656 187.910156 88.671875 C 187.929688 89.121094 187.859375 89.558594 187.707031 89.980469 C 187.550781 90.40625 187.320312 90.785156 187.015625 91.117188 Z M 182.347656 101.265625 L 159.546875 126.09375 C 158.886719 126.773438 158.125 127.296875 157.257812 127.671875 C 156.390625 128.046875 155.484375 128.242188 154.539062 128.261719 L 153.796875 128.261719 C 152.730469 128.132812 151.75 127.769531 150.855469 127.171875 C 149.960938 126.578125 149.25 125.8125 148.722656 124.878906 L 139.046875 108.570312 C 138.765625 108.1875 138.53125 107.78125 138.339844 107.347656 C 138.144531 106.917969 138 106.46875 137.902344 106.007812 C 137.800781 105.542969 137.753906 105.074219 137.75 104.601562 C 137.75 104.128906 137.800781 103.660156 137.898438 103.195312 C 137.996094 102.734375 138.140625 102.285156 138.332031 101.851562 C 138.523438 101.421875 138.757812 101.011719 139.035156 100.628906 C 139.3125 100.246094 139.625 99.894531 139.976562 99.578125 C 140.328125 99.257812 140.707031 98.980469 141.117188 98.742188 C 141.527344 98.503906 141.957031 98.3125 142.40625 98.164062 C 142.855469 98.015625 143.316406 97.917969 143.785156 97.867188 C 144.257812 97.816406 144.726562 97.8125 145.199219 97.859375 C 145.667969 97.90625 146.128906 98.003906 146.582031 98.148438 C 147.03125 98.292969 147.460938 98.480469 147.875 98.71875 C 148.285156 98.953125 148.667969 99.226562 149.019531 99.542969 C 149.375 99.855469 149.691406 100.203125 149.96875 100.585938 C 150.25 100.96875 150.488281 101.375 150.683594 101.804688 L 155.757812 110.261719 L 174.363281 89.964844 C 171.386719 87.261719 168.003906 85.230469 164.214844 83.875 C 160.941406 82.667969 157.554688 82.058594 154.066406 82.050781 C 153.070312 82.050781 152.074219 82.097656 151.082031 82.195312 C 150.089844 82.292969 149.105469 82.441406 148.125 82.632812 C 147.148438 82.828125 146.183594 83.070312 145.226562 83.359375 C 144.273438 83.648438 143.335938 83.984375 142.414062 84.367188 C 141.492188 84.75 140.59375 85.175781 139.714844 85.644531 C 138.835938 86.113281 137.980469 86.625 137.152344 87.179688 C 136.320312 87.734375 135.523438 88.328125 134.75 88.960938 C 133.980469 89.59375 133.242188 90.261719 132.535156 90.964844 C 131.832031 91.671875 131.164062 92.410156 130.53125 93.179688 C 129.898438 93.953125 129.304688 94.75 128.75 95.582031 C 128.195312 96.410156 127.683594 97.265625 127.214844 98.144531 C 126.746094 99.023438 126.320312 99.921875 125.9375 100.84375 C 125.554688 101.765625 125.21875 102.703125 124.929688 103.65625 C 124.640625 104.613281 124.398438 105.578125 124.203125 106.554688 C 124.011719 107.535156 123.863281 108.519531 123.765625 109.511719 C 123.667969 110.503906 123.621094 111.5 123.621094 112.496094 C 123.621094 113.492188 123.667969 114.488281 123.765625 115.480469 C 123.863281 116.472656 124.011719 117.457031 124.203125 118.4375 C 124.398438 119.414062 124.640625 120.378906 124.929688 121.332031 C 125.21875 122.289062 125.554688 123.226562 125.9375 124.148438 C 126.320312 125.070312 126.746094 125.96875 127.214844 126.847656 C 127.683594 127.726562 128.195312 128.582031 128.75 129.410156 C 129.304688 130.238281 129.898438 131.039062 130.53125 131.8125 C 131.164062 132.582031 131.832031 133.320312 132.535156 134.023438 C 133.242188 134.730469 133.980469 135.398438 134.75 136.03125 C 135.523438 136.664062 136.320312 137.257812 137.152344 137.8125 C 137.980469 138.363281 138.835938 138.878906 139.714844 139.347656 C 140.59375 139.816406 141.492188 140.242188 142.414062 140.625 C 143.335938 141.007812 144.273438 141.34375 145.226562 141.632812 C 146.183594 141.921875 147.148438 142.164062 148.125 142.355469 C 149.105469 142.550781 150.089844 142.699219 151.082031 142.796875 C 152.074219 142.894531 153.070312 142.941406 154.066406 142.941406 C 157.550781 142.953125 160.933594 142.367188 164.214844 141.183594 C 165.6875 140.660156 167.113281 140.027344 168.488281 139.285156 C 169.863281 138.542969 171.175781 137.699219 172.421875 136.753906 C 173.667969 135.8125 174.835938 134.777344 175.921875 133.652344 C 177.011719 132.53125 178.003906 131.332031 178.90625 130.054688 C 179.8125 128.777344 180.613281 127.441406 181.308594 126.042969 C 182.007812 124.640625 182.59375 123.199219 183.066406 121.707031 C 183.542969 120.21875 183.902344 118.703125 184.144531 117.15625 C 184.386719 115.613281 184.507812 114.058594 184.511719 112.496094 C 184.527344 108.609375 183.804688 104.867188 182.347656 101.265625 Z M 116.851562 112.496094 C 116.855469 113.714844 116.917969 114.929688 117.039062 116.140625 C 117.160156 117.351562 117.339844 118.554688 117.578125 119.75 C 117.820312 120.945312 118.117188 122.125 118.472656 123.289062 C 118.824219 124.457031 119.238281 125.601562 119.703125 126.726562 C 120.171875 127.851562 120.691406 128.949219 121.265625 130.023438 C 121.84375 131.097656 122.46875 132.140625 123.144531 133.152344 C 123.824219 134.167969 124.546875 135.144531 125.320312 136.085938 C 126.09375 137.027344 126.910156 137.929688 127.773438 138.789062 C 128.632812 139.652344 129.535156 140.46875 130.476562 141.242188 C 131.417969 142.015625 132.394531 142.738281 133.40625 143.417969 C 134.421875 144.09375 135.464844 144.71875 136.539062 145.292969 C 137.613281 145.871094 138.710938 146.390625 139.835938 146.859375 C 140.960938 147.324219 142.105469 147.734375 143.269531 148.089844 C 144.4375 148.445312 145.617188 148.742188 146.8125 148.980469 C 148.003906 149.222656 149.207031 149.402344 150.421875 149.523438 C 151.632812 149.644531 152.847656 149.707031 154.066406 149.707031 C 157.515625 149.71875 160.898438 149.246094 164.214844 148.289062 L 164.214844 166.625 C 164.214844 167.175781 164.1875 167.730469 164.132812 168.28125 C 164.078125 168.832031 163.996094 169.378906 163.890625 169.921875 C 163.78125 170.464844 163.648438 171.003906 163.488281 171.53125 C 163.324219 172.0625 163.140625 172.585938 162.925781 173.097656 C 162.714844 173.609375 162.480469 174.109375 162.21875 174.597656 C 161.957031 175.085938 161.671875 175.558594 161.363281 176.019531 C 161.054688 176.480469 160.726562 176.925781 160.375 177.355469 C 160.023438 177.78125 159.652344 178.191406 159.261719 178.582031 C 158.867188 178.976562 158.460938 179.347656 158.03125 179.699219 C 157.601562 180.050781 157.15625 180.378906 156.699219 180.6875 C 156.238281 180.996094 155.761719 181.28125 155.273438 181.539062 C 154.785156 181.800781 154.285156 182.039062 153.773438 182.25 C 153.261719 182.460938 152.742188 182.648438 152.210938 182.808594 C 151.679688 182.96875 151.144531 183.105469 150.601562 183.210938 C 150.058594 183.320312 149.507812 183.402344 148.957031 183.457031 C 148.40625 183.511719 147.855469 183.539062 147.300781 183.539062 L 59.34375 183.539062 C 58.789062 183.539062 58.238281 183.511719 57.683594 183.457031 C 57.132812 183.402344 56.585938 183.320312 56.042969 183.210938 C 55.5 183.105469 54.964844 182.96875 54.433594 182.808594 C 53.902344 182.648438 53.382812 182.460938 52.871094 182.25 C 52.359375 182.039062 51.859375 181.800781 51.371094 181.539062 C 50.882812 181.28125 50.40625 180.996094 49.945312 180.6875 C 49.484375 180.378906 49.039062 180.050781 48.613281 179.699219 C 48.183594 179.347656 47.773438 178.976562 47.382812 178.582031 C 46.992188 178.191406 46.621094 177.78125 46.269531 177.355469 C 45.917969 176.925781 45.585938 176.480469 45.277344 176.019531 C 44.972656 175.558594 44.6875 175.085938 44.425781 174.597656 C 44.164062 174.109375 43.929688 173.609375 43.714844 173.097656 C 43.503906 172.585938 43.316406 172.0625 43.15625 171.53125 C 42.996094 171.003906 42.863281 170.464844 42.753906 169.921875 C 42.644531 169.378906 42.5625 168.832031 42.511719 168.28125 C 42.457031 167.730469 42.429688 167.175781 42.429688 166.625 L 42.429688 58.367188 C 42.429688 57.8125 42.457031 57.261719 42.511719 56.710938 C 42.5625 56.160156 42.644531 55.613281 42.753906 55.070312 C 42.863281 54.523438 42.996094 53.988281 43.15625 53.457031 C 43.316406 52.929688 43.503906 52.40625 43.714844 51.894531 C 43.929688 51.382812 44.164062 50.882812 44.425781 50.394531 C 44.6875 49.90625 44.972656 49.429688 45.277344 48.972656 C 45.585938 48.511719 45.917969 48.066406 46.269531 47.636719 C 46.621094 47.210938 46.992188 46.800781 47.382812 46.40625 C 47.773438 46.015625 48.183594 45.644531 48.613281 45.292969 C 49.039062 44.941406 49.484375 44.613281 49.945312 44.304688 C 50.40625 43.996094 50.882812 43.710938 51.371094 43.449219 C 51.859375 43.191406 52.359375 42.953125 52.871094 42.742188 C 53.382812 42.527344 53.902344 42.34375 54.433594 42.183594 C 54.964844 42.019531 55.5 41.886719 56.042969 41.777344 C 56.585938 41.671875 57.132812 41.589844 57.683594 41.535156 C 58.238281 41.480469 58.789062 41.453125 59.34375 41.453125 L 147.300781 41.453125 C 147.855469 41.453125 148.40625 41.480469 148.957031 41.535156 C 149.507812 41.589844 150.058594 41.671875 150.601562 41.777344 C 151.144531 41.886719 151.679688 42.019531 152.210938 42.183594 C 152.742188 42.34375 153.261719 42.527344 153.773438 42.742188 C 154.285156 42.953125 154.785156 43.191406 155.273438 43.449219 C 155.761719 43.710938 156.238281 43.996094 156.699219 44.304688 C 157.15625 44.613281 157.601562 44.941406 158.03125 45.292969 C 158.460938 45.644531 158.867188 46.015625 159.261719 46.40625 C 159.652344 46.800781 160.023438 47.210938 160.375 47.636719 C 160.726562 48.066406 161.054688 48.511719 161.363281 48.972656 C 161.671875 49.429688 161.957031 49.90625 162.21875 50.394531 C 162.480469 50.882812 162.714844 51.382812 162.925781 51.894531 C 163.140625 52.40625 163.324219 52.929688 163.488281 53.457031 C 163.648438 53.988281 163.78125 54.523438 163.890625 55.070312 C 163.996094 55.613281 164.078125 56.160156 164.132812 56.710938 C 164.1875 57.261719 164.214844 57.8125 164.214844 58.367188 L 164.214844 76.703125 C 160.898438 75.746094 157.515625 75.269531 154.066406 75.28125 C 152.847656 75.285156 151.632812 75.347656 150.421875 75.46875 C 149.207031 75.589844 148.003906 75.769531 146.8125 76.007812 C 145.617188 76.25 144.4375 76.546875 143.269531 76.902344 C 142.105469 77.253906 140.960938 77.667969 139.835938 78.132812 C 138.710938 78.601562 137.613281 79.121094 136.539062 79.695312 C 135.464844 80.273438 134.421875 80.898438 133.40625 81.574219 C 132.394531 82.253906 131.417969 82.976562 130.476562 83.75 C 129.535156 84.523438 128.632812 85.339844 127.773438 86.203125 C 126.910156 87.0625 126.09375 87.964844 125.320312 88.90625 C 124.546875 89.847656 123.824219 90.824219 123.144531 91.835938 C 122.46875 92.851562 121.84375 93.894531 121.265625 94.96875 C 120.691406 96.042969 120.171875 97.140625 119.703125 98.265625 C 119.238281 99.390625 118.824219 100.535156 118.472656 101.699219 C 118.117188 102.867188 117.820312 104.046875 117.578125 105.242188 C 117.339844 106.433594 117.160156 107.636719 117.039062 108.851562 C 116.917969 110.0625 116.855469 111.277344 116.851562 112.496094 Z M 69.492188 126.027344 C 69.492188 126.476562 69.578125 126.90625 69.75 127.320312 C 69.921875 127.738281 70.164062 128.101562 70.484375 128.417969 C 70.800781 128.738281 71.164062 128.980469 71.582031 129.152344 C 71.996094 129.324219 72.425781 129.410156 72.875 129.410156 L 106.703125 129.410156 C 107.152344 129.410156 107.585938 129.324219 108 129.152344 C 108.414062 128.980469 108.78125 128.738281 109.097656 128.417969 C 109.414062 128.101562 109.660156 127.738281 109.828125 127.320312 C 110 126.90625 110.085938 126.476562 110.085938 126.027344 C 110.085938 125.578125 110 125.148438 109.828125 124.734375 C 109.660156 124.320312 109.414062 123.953125 109.097656 123.636719 C 108.78125 123.316406 108.414062 123.074219 108 122.902344 C 107.585938 122.730469 107.152344 122.644531 106.703125 122.644531 L 72.875 122.644531 C 72.425781 122.644531 71.996094 122.730469 71.582031 122.902344 C 71.164062 123.074219 70.800781 123.316406 70.484375 123.636719 C 70.164062 123.953125 69.921875 124.320312 69.75 124.734375 C 69.578125 125.148438 69.492188 125.578125 69.492188 126.027344 Z M 72.875 102.347656 L 99.9375 102.347656 C 100.386719 102.347656 100.820312 102.261719 101.234375 102.089844 C 101.648438 101.917969 102.011719 101.671875 102.332031 101.355469 C 102.648438 101.039062 102.890625 100.671875 103.0625 100.257812 C 103.234375 99.84375 103.320312 99.414062 103.320312 98.964844 C 103.320312 98.515625 103.234375 98.082031 103.0625 97.667969 C 102.890625 97.253906 102.648438 96.890625 102.332031 96.570312 C 102.011719 96.253906 101.648438 96.011719 101.234375 95.839844 C 100.820312 95.667969 100.386719 95.582031 99.9375 95.582031 L 72.875 95.582031 C 72.425781 95.582031 71.996094 95.667969 71.582031 95.839844 C 71.164062 96.011719 70.800781 96.253906 70.484375 96.570312 C 70.164062 96.890625 69.921875 97.253906 69.75 97.667969 C 69.578125 98.082031 69.492188 98.515625 69.492188 98.964844 C 69.492188 99.414062 69.578125 99.84375 69.75 100.257812 C 69.921875 100.671875 70.164062 101.039062 70.484375 101.355469 C 70.800781 101.671875 71.164062 101.917969 71.582031 102.089844 C 71.996094 102.261719 72.425781 102.347656 72.875 102.347656 Z M 72.875 149.707031 C 72.425781 149.707031 71.996094 149.792969 71.582031 149.964844 C 71.164062 150.136719 70.800781 150.382812 70.484375 150.699219 C 70.164062 151.015625 69.921875 151.382812 69.75 151.796875 C 69.578125 152.210938 69.492188 152.644531 69.492188 153.089844 C 69.492188 153.539062 69.578125 153.972656 69.75 154.386719 C 69.921875 154.800781 70.164062 155.167969 70.484375 155.484375 C 70.800781 155.800781 71.164062 156.046875 71.582031 156.214844 C 71.996094 156.386719 72.425781 156.472656 72.875 156.472656 L 133.769531 156.472656 C 134.21875 156.472656 134.648438 156.386719 135.0625 156.214844 C 135.476562 156.046875 135.84375 155.800781 136.160156 155.484375 C 136.476562 155.167969 136.722656 154.800781 136.894531 154.386719 C 137.066406 153.972656 137.152344 153.539062 137.152344 153.089844 C 137.152344 152.644531 137.066406 152.210938 136.894531 151.796875 C 136.722656 151.382812 136.476562 151.015625 136.160156 150.699219 C 135.84375 150.382812 135.476562 150.136719 135.0625 149.964844 C 134.648438 149.792969 134.21875 149.707031 133.769531 149.707031 Z M 133.769531 75.28125 C 134.21875 75.28125 134.648438 75.199219 135.0625 75.027344 C 135.476562 74.855469 135.84375 74.609375 136.160156 74.292969 C 136.476562 73.976562 136.722656 73.609375 136.894531 73.195312 C 137.066406 72.78125 137.152344 72.347656 137.152344 71.898438 C 137.152344 71.453125 137.066406 71.019531 136.894531 70.605469 C 136.722656 70.191406 136.476562 69.824219 136.160156 69.507812 C 135.84375 69.191406 135.476562 68.945312 135.0625 68.773438 C 134.648438 68.601562 134.21875 68.515625 133.769531 68.515625 L 72.875 68.515625 C 72.425781 68.515625 71.996094 68.601562 71.582031 68.773438 C 71.164062 68.945312 70.800781 69.191406 70.484375 69.507812 C 70.164062 69.824219 69.921875 70.191406 69.75 70.605469 C 69.578125 71.019531 69.492188 71.453125 69.492188 71.898438 C 69.492188 72.347656 69.578125 72.78125 69.75 73.195312 C 69.921875 73.609375 70.164062 73.976562 70.484375 74.292969 C 70.800781 74.609375 71.164062 74.855469 71.582031 75.027344 C 71.996094 75.199219 72.425781 75.28125 72.875 75.28125 Z M 133.769531 75.28125 " fill-opacity="1" fill-rule="nonzero"/></g></g></svg>