<svg xmlns="http://www.w3.org/2000/svg" xmlns:xlink="http://www.w3.org/1999/xlink" width="150" zoomAndPan="magnify" viewBox="0 0 112.5 60" height="80" preserveAspectRatio="xMidYMid meet" version="1.0"><defs><g/><clipPath id="398dc5ae2f"><path d="M 89 9 L 103 9 L 103 24 L 89 24 Z M 89 9 " clip-rule="nonzero"/></clipPath><clipPath id="b0c06f9ffd"><path d="M 86.488281 11.613281 L 95.8125 2.996094 L 108.988281 17.253906 L 99.667969 25.871094 Z M 86.488281 11.613281 " clip-rule="nonzero"/></clipPath><clipPath id="c486d54595"><path d="M 86.488281 11.613281 L 95.8125 2.996094 L 108.988281 17.253906 L 99.667969 25.871094 Z M 86.488281 11.613281 " clip-rule="nonzero"/></clipPath><clipPath id="81cac72189"><path d="M 95 4 L 109 4 L 109 18 L 95 18 Z M 95 4 " clip-rule="nonzero"/></clipPath><clipPath id="4012f6095b"><path d="M 92.34375 6.207031 L 101.667969 -2.410156 L 114.84375 11.847656 L 105.523438 20.460938 Z M 92.34375 6.207031 " clip-rule="nonzero"/></clipPath><clipPath id="f4d20f820c"><path d="M 92.34375 6.207031 L 101.667969 -2.410156 L 114.84375 11.847656 L 105.523438 20.460938 Z M 92.34375 6.207031 " clip-rule="nonzero"/></clipPath></defs><g fill="#373643" fill-opacity="1"><g transform="translate(7.131129, 39.236227)"><g><path d="M 21.703125 -26.6875 C 22.515625 -26.6875 23.128906 -26.460938 23.546875 -26.015625 C 23.972656 -25.578125 24.1875 -25.078125 24.1875 -24.515625 C 24.1875 -23.984375 23.972656 -23.492188 23.546875 -23.046875 C 23.128906 -22.597656 22.515625 -22.375 21.703125 -22.375 L 13.90625 -22.375 L 13.953125 -2.21875 C 13.953125 -1.46875 13.679688 -0.910156 13.140625 -0.546875 C 12.597656 -0.179688 12.046875 0 11.484375 0 C 10.898438 0 10.347656 -0.179688 9.828125 -0.546875 C 9.304688 -0.910156 9.046875 -1.46875 9.046875 -2.21875 L 9.046875 -22.375 L 1.296875 -22.375 C 0.484375 -22.375 -0.109375 -22.597656 -0.484375 -23.046875 C -0.859375 -23.492188 -1.046875 -23.984375 -1.046875 -24.515625 C -1.046875 -25.078125 -0.859375 -25.578125 -0.484375 -26.015625 C -0.109375 -26.460938 0.484375 -26.6875 1.296875 -26.6875 Z M 21.703125 -26.6875 "/></g></g></g><g fill="#373643" fill-opacity="1"><g transform="translate(30.216526, 39.236227)"><g><path d="M 19.484375 -21.328125 C 20.210938 -21.328125 20.789062 -21.125 21.21875 -20.71875 C 21.65625 -20.3125 21.875 -19.789062 21.875 -19.15625 L 21.875 -2.171875 C 21.875 -1.535156 21.65625 -1.015625 21.21875 -0.609375 C 20.789062 -0.203125 20.210938 0 19.484375 0 C 18.785156 0 18.238281 -0.160156 17.84375 -0.484375 C 17.457031 -0.804688 17.222656 -1.234375 17.140625 -1.765625 C 16.191406 -1.003906 15.128906 -0.445312 13.953125 -0.09375 C 12.773438 0.25 11.660156 0.421875 10.609375 0.421875 C 8.585938 0.421875 6.84375 -0.0351562 5.375 -0.953125 C 3.914062 -1.878906 2.796875 -3.179688 2.015625 -4.859375 C 1.234375 -6.535156 0.84375 -8.492188 0.84375 -10.734375 C 0.84375 -12.910156 1.273438 -14.820312 2.140625 -16.46875 C 3.003906 -18.113281 4.210938 -19.40625 5.765625 -20.34375 C 7.316406 -21.28125 9.109375 -21.75 11.140625 -21.75 C 12.035156 -21.75 13.023438 -21.582031 14.109375 -21.25 C 15.203125 -20.914062 16.210938 -20.382812 17.140625 -19.65625 C 17.253906 -20.15625 17.503906 -20.554688 17.890625 -20.859375 C 18.285156 -21.171875 18.816406 -21.328125 19.484375 -21.328125 Z M 11.109375 -3.8125 C 12.335938 -3.8125 13.523438 -4.082031 14.671875 -4.625 C 15.816406 -5.175781 16.625 -5.984375 17.09375 -7.046875 L 17.09375 -14.296875 C 16.5625 -15.328125 15.765625 -16.117188 14.703125 -16.671875 C 13.640625 -17.234375 12.566406 -17.515625 11.484375 -17.515625 C 9.722656 -17.515625 8.300781 -16.867188 7.21875 -15.578125 C 6.144531 -14.296875 5.609375 -12.664062 5.609375 -10.6875 C 5.609375 -8.613281 6.109375 -6.945312 7.109375 -5.6875 C 8.117188 -4.4375 9.453125 -3.8125 11.109375 -3.8125 Z M 11.109375 -3.8125 "/></g></g></g><g fill="#373643" fill-opacity="1"><g transform="translate(54.433168, 39.236227)"><g><path d="M 0.546875 -4.984375 C 0.347656 -5.765625 0.523438 -6.390625 1.078125 -6.859375 C 1.640625 -7.335938 2.257812 -7.578125 2.9375 -7.578125 C 3.4375 -7.578125 3.878906 -7.429688 4.265625 -7.140625 C 4.660156 -6.847656 4.957031 -6.410156 5.15625 -5.828125 C 5.320312 -5.328125 5.679688 -4.914062 6.234375 -4.59375 C 6.796875 -4.269531 7.445312 -4.035156 8.1875 -3.890625 C 8.925781 -3.753906 9.675781 -3.6875 10.4375 -3.6875 C 11.945312 -3.6875 13.160156 -3.957031 14.078125 -4.5 C 15.003906 -5.050781 15.46875 -5.742188 15.46875 -6.578125 C 15.46875 -7.160156 15.222656 -7.59375 14.734375 -7.875 C 14.242188 -8.15625 13.597656 -8.347656 12.796875 -8.453125 C 12.003906 -8.566406 11.160156 -8.65625 10.265625 -8.71875 C 9.085938 -8.832031 7.929688 -8.972656 6.796875 -9.140625 C 5.671875 -9.304688 4.644531 -9.59375 3.71875 -10 C 2.800781 -10.40625 2.0625 -11.003906 1.5 -11.796875 C 0.945312 -12.585938 0.671875 -13.671875 0.671875 -15.046875 C 0.671875 -16.390625 1.0625 -17.5625 1.84375 -18.5625 C 2.625 -19.570312 3.726562 -20.351562 5.15625 -20.90625 C 6.582031 -21.46875 8.226562 -21.75 10.09375 -21.75 C 11.1875 -21.75 12.359375 -21.644531 13.609375 -21.4375 C 14.867188 -21.226562 16.035156 -20.800781 17.109375 -20.15625 C 18.191406 -19.507812 18.984375 -18.519531 19.484375 -17.1875 C 19.679688 -16.625 19.664062 -16.125 19.4375 -15.6875 C 19.21875 -15.257812 18.890625 -14.929688 18.453125 -14.703125 C 18.023438 -14.484375 17.585938 -14.375 17.140625 -14.375 C 16.640625 -14.375 16.226562 -14.46875 15.90625 -14.65625 C 15.582031 -14.851562 15.3125 -15.191406 15.09375 -15.671875 C 14.832031 -16.253906 14.398438 -16.6875 13.796875 -16.96875 C 13.203125 -17.25 12.5625 -17.421875 11.875 -17.484375 C 11.195312 -17.554688 10.601562 -17.59375 10.09375 -17.59375 C 8.695312 -17.59375 7.570312 -17.351562 6.71875 -16.875 C 5.875 -16.40625 5.453125 -15.78125 5.453125 -15 C 5.453125 -14.332031 5.671875 -13.878906 6.109375 -13.640625 C 6.554688 -13.398438 7.164062 -13.257812 7.9375 -13.21875 C 8.707031 -13.175781 9.566406 -13.097656 10.515625 -12.984375 C 11.691406 -12.847656 12.851562 -12.695312 14 -12.53125 C 15.144531 -12.363281 16.191406 -12.078125 17.140625 -11.671875 C 18.085938 -11.265625 18.835938 -10.660156 19.390625 -9.859375 C 19.953125 -9.066406 20.234375 -7.972656 20.234375 -6.578125 C 20.234375 -5.210938 19.820312 -4 19 -2.9375 C 18.175781 -1.875 17.03125 -1.046875 15.5625 -0.453125 C 14.101562 0.128906 12.394531 0.421875 10.4375 0.421875 C 9.570312 0.421875 8.628906 0.359375 7.609375 0.234375 C 6.585938 0.109375 5.59375 -0.140625 4.625 -0.515625 C 3.664062 -0.898438 2.820312 -1.445312 2.09375 -2.15625 C 1.363281 -2.875 0.847656 -3.816406 0.546875 -4.984375 Z M 0.546875 -4.984375 "/></g></g></g><g fill="#373643" fill-opacity="1"><g transform="translate(75.256076, 39.236227)"><g><path d="M 18.78125 -3.609375 C 19.25 -3.015625 19.429688 -2.445312 19.328125 -1.90625 C 19.234375 -1.363281 18.96875 -0.910156 18.53125 -0.546875 C 18.101562 -0.179688 17.613281 0 17.0625 0 C 16.300781 0 15.65625 -0.304688 15.125 -0.921875 L 8.046875 -8.796875 L 6.828125 -7.703125 L 6.828125 -2.140625 C 6.828125 -1.441406 6.566406 -0.910156 6.046875 -0.546875 C 5.535156 -0.179688 4.988281 0 4.40625 0 C 3.789062 0 3.242188 -0.179688 2.765625 -0.546875 C 2.285156 -0.910156 2.046875 -1.441406 2.046875 -2.140625 L 2.046875 -24.96875 C 2.046875 -25.695312 2.285156 -26.234375 2.765625 -26.578125 C 3.242188 -26.929688 3.800781 -27.109375 4.4375 -27.109375 C 5.082031 -27.109375 5.640625 -26.929688 6.109375 -26.578125 C 6.585938 -26.234375 6.828125 -25.695312 6.828125 -24.96875 L 6.828125 -13.40625 L 14.578125 -20.65625 C 15.109375 -21.101562 15.695312 -21.328125 16.34375 -21.328125 C 17.007812 -21.328125 17.582031 -21.109375 18.0625 -20.671875 C 18.539062 -20.242188 18.78125 -19.75 18.78125 -19.1875 C 18.78125 -18.65625 18.484375 -18.113281 17.890625 -17.5625 L 11.3125 -11.734375 Z M 18.78125 -3.609375 "/></g></g></g><g fill="#373643" fill-opacity="1"><g transform="translate(24.972089, 53.696503)"><g><path d="M 11.65625 -10.859375 L 11.65625 0 L 10.9375 0 L 10.9375 -9.375 L 6.765625 0 L 6.203125 0 L 2.015625 -9.375 L 2.015625 0 L 1.296875 0 L 1.296875 -10.859375 L 2.0625 -10.859375 L 6.484375 -0.9375 L 10.90625 -10.859375 Z M 11.65625 -10.859375 "/></g></g></g><g fill="#373643" fill-opacity="1"><g transform="translate(37.334577, 53.696503)"><g><path d="M 7.59375 -2.84375 L 2.328125 -2.84375 L 1.265625 0 L 0.484375 0 L 4.5625 -10.84375 L 5.359375 -10.84375 L 9.421875 0 L 8.65625 0 Z M 7.375 -3.453125 L 4.96875 -9.921875 L 2.546875 -3.453125 Z M 7.375 -3.453125 "/></g></g></g><g fill="#373643" fill-opacity="1"><g transform="translate(46.645921, 53.696503)"><g><path d="M 4.5 0.109375 C 3.789062 0.109375 3.164062 -0.015625 2.625 -0.265625 C 2.082031 -0.515625 1.660156 -0.851562 1.359375 -1.28125 C 1.066406 -1.71875 0.898438 -2.203125 0.859375 -2.734375 L 1.59375 -2.734375 C 1.675781 -2.148438 1.945312 -1.628906 2.40625 -1.171875 C 2.863281 -0.722656 3.5625 -0.5 4.5 -0.5 C 5.050781 -0.5 5.53125 -0.597656 5.9375 -0.796875 C 6.34375 -1.003906 6.65625 -1.28125 6.875 -1.625 C 7.09375 -1.976562 7.203125 -2.363281 7.203125 -2.78125 C 7.203125 -3.320312 7.070312 -3.75 6.8125 -4.0625 C 6.5625 -4.375 6.242188 -4.609375 5.859375 -4.765625 C 5.472656 -4.929688 4.953125 -5.101562 4.296875 -5.28125 C 3.578125 -5.46875 3 -5.65625 2.5625 -5.84375 C 2.125 -6.039062 1.753906 -6.335938 1.453125 -6.734375 C 1.160156 -7.128906 1.015625 -7.664062 1.015625 -8.34375 C 1.015625 -8.875 1.148438 -9.359375 1.421875 -9.796875 C 1.703125 -10.234375 2.101562 -10.578125 2.625 -10.828125 C 3.144531 -11.085938 3.738281 -11.21875 4.40625 -11.21875 C 5.382812 -11.21875 6.175781 -10.972656 6.78125 -10.484375 C 7.382812 -9.992188 7.742188 -9.398438 7.859375 -8.703125 L 7.09375 -8.703125 C 7.03125 -8.984375 6.890625 -9.269531 6.671875 -9.5625 C 6.460938 -9.863281 6.160156 -10.109375 5.765625 -10.296875 C 5.367188 -10.492188 4.894531 -10.59375 4.34375 -10.59375 C 3.601562 -10.59375 2.976562 -10.390625 2.46875 -9.984375 C 1.96875 -9.578125 1.71875 -9.035156 1.71875 -8.359375 C 1.71875 -7.828125 1.847656 -7.398438 2.109375 -7.078125 C 2.378906 -6.753906 2.707031 -6.507812 3.09375 -6.34375 C 3.476562 -6.1875 4 -6.019531 4.65625 -5.84375 C 5.375 -5.644531 5.945312 -5.453125 6.375 -5.265625 C 6.800781 -5.085938 7.164062 -4.800781 7.46875 -4.40625 C 7.769531 -4.007812 7.921875 -3.472656 7.921875 -2.796875 C 7.921875 -2.304688 7.785156 -1.835938 7.515625 -1.390625 C 7.253906 -0.953125 6.867188 -0.59375 6.359375 -0.3125 C 5.847656 -0.03125 5.226562 0.109375 4.5 0.109375 Z M 4.5 0.109375 "/></g></g></g><g fill="#373643" fill-opacity="1"><g transform="translate(54.803204, 53.696503)"><g><path d="M 7.4375 -11.09375 L 7.4375 -10.5 L 4.265625 -10.5 L 4.265625 0 L 3.5625 0 L 3.5625 -10.5 L 0.390625 -10.5 L 0.390625 -11.09375 Z M 7.4375 -11.09375 "/></g></g></g><g fill="#373643" fill-opacity="1"><g transform="translate(62.027747, 53.696503)"><g><path d="M 2.015625 -10.5 L 2.015625 -5.859375 L 6.4375 -5.859375 L 6.4375 -5.265625 L 2.015625 -5.265625 L 2.015625 -0.59375 L 6.90625 -0.59375 L 6.90625 0 L 1.296875 0 L 1.296875 -11.09375 L 6.90625 -11.09375 L 6.90625 -10.5 Z M 2.015625 -10.5 "/></g></g></g><g fill="#373643" fill-opacity="1"><g transform="translate(69.189061, 53.696503)"><g><path d="M 7.296875 0 L 4.4375 -4.734375 L 2.015625 -4.734375 L 2.015625 0 L 1.296875 0 L 1.296875 -11.09375 L 4.34375 -11.09375 C 5.582031 -11.09375 6.507812 -10.800781 7.125 -10.21875 C 7.738281 -9.644531 8.046875 -8.878906 8.046875 -7.921875 C 8.046875 -7.066406 7.804688 -6.363281 7.328125 -5.8125 C 6.847656 -5.257812 6.148438 -4.921875 5.234375 -4.796875 L 8.140625 0 Z M 2.015625 -5.328125 L 4.375 -5.328125 C 5.351562 -5.328125 6.085938 -5.5625 6.578125 -6.03125 C 7.066406 -6.507812 7.3125 -7.140625 7.3125 -7.921875 C 7.3125 -9.617188 6.320312 -10.46875 4.34375 -10.46875 L 2.015625 -10.46875 Z M 2.015625 -5.328125 "/></g></g></g><g clip-path="url(#398dc5ae2f)"><g clip-path="url(#b0c06f9ffd)"><g clip-path="url(#c486d54595)"><path fill="#18cb96" d="M 102.664062 10.035156 L 91.097656 9.523438 C 88.863281 9.421875 88.488281 13.773438 91.132812 13.847656 L 98.332031 14.042969 L 97.78125 21.285156 C 97.613281 23.488281 101.917969 23.722656 102.039062 21.480469 Z M 102.664062 10.035156 " fill-opacity="1" fill-rule="nonzero"/></g></g></g><g clip-path="url(#81cac72189)"><g clip-path="url(#4012f6095b)"><g clip-path="url(#f4d20f820c)"><path fill="#18cb96" d="M 108.523438 4.628906 L 96.953125 4.113281 C 94.71875 4.015625 94.34375 8.367188 96.992188 8.4375 L 104.1875 8.632812 L 103.636719 15.875 C 103.472656 18.082031 107.773438 18.316406 107.894531 16.074219 Z M 108.523438 4.628906 " fill-opacity="1" fill-rule="nonzero"/></g></g></g></svg>